<?xml version="1.0" encoding="UTF-8"?>
<svg width="14px" height="14px" viewBox="0 0 14 14" version="1.1" xmlns="http://www.w3.org/2000/svg" xmlns:xlink="http://www.w3.org/1999/xlink">
    <!-- Generator: Sketch 52.1 (67048) - http://www.bohemiancoding.com/sketch -->
    <title>Path</title>
    <desc>Created with Sketch.</desc>
    <g id="Page-1" stroke="none" stroke-width="1" fill="none" fill-rule="evenodd">
        <path d="M7,5.6 L11.9,0.7 C12.2865993,0.313400675 12.9134007,0.313400675 13.3,0.7 L13.3,0.7 C13.6865993,1.08659932 13.6865993,1.71340068 13.3,2.1 L8.4,7 L13.3,11.9 C13.6865993,12.2865993 13.6865993,12.9134007 13.3,13.3 L13.3,13.3 C12.9134007,13.6865993 12.2865993,13.6865993 11.9,13.3 L7,8.4 L2.1,13.3 C1.71340068,13.6865993 1.08659932,13.6865993 0.7,13.3 L0.7,13.3 C0.313400675,12.9134007 0.313400675,12.2865993 0.7,11.9 L5.6,7 L0.7,2.1 C0.313400675,1.71340068 0.313400675,1.08659932 0.7,0.7 L0.7,0.7 C1.08659932,0.313400675 1.71340068,0.313400675 2.1,0.7 L7,5.6 Z" id="Path" fill="#DA0F10"></path>
    </g>
</svg>