<?xml version="1.0" encoding="utf-8"?>
<!-- Generator: Adobe Illustrator 22.1.0, SVG Export Plug-In . SVG Version: 6.00 Build 0)  -->
<svg version="1.1" id="图层_1" xmlns="http://www.w3.org/2000/svg" xmlns:xlink="http://www.w3.org/1999/xlink" x="0px" y="0px"
	 viewBox="0 0 850.4 255.1" style="enable-background:new 0 0 850.4 255.1;" xml:space="preserve">
<style type="text/css">
	.st0{fill:#C0C1C1;}
	.st1{fill:#FFFFFF;}
	.st2{fill-rule:evenodd;clip-rule:evenodd;fill:#C8102E;}
</style>
<g>
	<g>
		<g>
			<g>
				<path class="st0" d="M790.4,0H60c-2.3,0-4.6,0-6.9,0c-1.9,0-3.8,0-5.8,0.1c-4.2,0.1-8.4,0.4-12.6,1.1c-4.2,0.7-8.1,2-12,3.9
					c-3.8,1.9-7.2,4.4-10.2,7.4c-3,3-5.5,6.4-7.4,10.2c-2,3.8-3.2,7.8-3.9,12c-0.8,4.2-1,8.4-1.1,12.6C0,49.3,0,51.2,0,53.2
					c0,2.3,0,4.6,0,6.9v135c0,2.3,0,4.6,0,6.9c0,2,0,3.8,0.1,5.8c0.1,4.2,0.4,8.4,1.1,12.6c0.7,4.2,2,8.2,3.9,12
					c1.9,3.8,4.4,7.2,7.4,10.2c3,3,6.4,5.5,10.2,7.4c3.8,2,7.8,3.2,12,4c4.2,0.8,8.4,1,12.6,1.1c1.9,0,3.9,0.1,5.8,0.1
					c2.3,0,4.6,0,6.9,0h730.4c2.3,0,4.6,0,6.8,0c1.9,0,3.9,0,5.8-0.1c4.2-0.1,8.4-0.4,12.6-1.1c4.2-0.8,8.1-2,12-4
					c3.8-1.9,7.2-4.4,10.2-7.4c3-3,5.5-6.4,7.4-10.2c1.9-3.8,3.2-7.8,3.9-12c0.8-4.2,1-8.4,1.2-12.6c0-2,0-3.8,0-5.8
					c0-2.3,0-4.6,0-6.9V60c0-2.3,0-4.6,0-6.9c0-1.9,0-3.9,0-5.8c-0.1-4.2-0.4-8.4-1.2-12.6c-0.7-4.2-2-8.2-3.9-12
					c-1.9-3.8-4.4-7.2-7.4-10.2c-3-3-6.4-5.5-10.2-7.4c-3.9-1.9-7.8-3.2-12-3.9c-4.1-0.8-8.4-1-12.6-1.1c-1.9,0-3.9-0.1-5.8-0.1
					C795,0,792.7,0,790.4,0L790.4,0z"/>
				<path d="M53.2,249.6c-1.9,0-3.8,0-5.7-0.1c-3.5-0.1-7.7-0.3-11.8-1c-3.8-0.7-7.3-1.8-10.4-3.4c-3.3-1.7-6.2-3.8-8.8-6.4
					c-2.6-2.6-4.7-5.5-6.4-8.8c-1.6-3.2-2.7-6.6-3.4-10.4c-0.8-4.2-1-8.5-1-11.8c0-1.3-0.1-5.7-0.1-5.7V53.2c0,0,0.1-4.4,0.1-5.6
					c0.1-3.3,0.3-7.6,1-11.8c0.7-3.9,1.8-7.3,3.4-10.5c1.7-3.3,3.8-6.3,6.4-8.8c2.6-2.6,5.6-4.8,8.8-6.4c3.2-1.6,6.6-2.8,10.4-3.4
					c4.2-0.8,8.5-0.9,11.8-1l5.7-0.1h744l5.7,0.1c3.2,0.1,7.5,0.3,11.7,1c3.8,0.7,7.2,1.8,10.5,3.4c3.2,1.7,6.2,3.8,8.8,6.4
					c2.6,2.6,4.7,5.5,6.4,8.8c1.6,3.2,2.7,6.6,3.4,10.4c0.7,4,1,8.1,1.1,11.9c0,1.8,0,3.7,0,5.6c0,2.4,0,4.6,0,6.9v135
					c0,2.3,0,4.5,0,6.8c0,2,0,3.9,0,5.9c-0.1,3.7-0.4,7.8-1.1,11.7c-0.7,3.9-1.8,7.3-3.4,10.5c-1.7,3.3-3.9,6.2-6.4,8.7
					c-2.6,2.6-5.6,4.8-8.8,6.4c-3.3,1.7-6.6,2.8-10.5,3.5c-4,0.7-8.2,0.9-11.8,1c-1.8,0-3.8,0.1-5.6,0.1l-6.8,0L53.2,249.6z"/>
			</g>
		</g>
	</g>
	<g>
		<g>
			<path class="st1" d="M315.4,172.4h-29.5l-7.2,19.7h-13l28.9-73.7h12.3l29.6,73.7h-13.6L315.4,172.4z M289.6,162.4h22l-7.9-21.1
				c-1.1-2.9-2.2-6.1-3.2-9.7c-1,3.1-2,6.3-3.1,9.6L289.6,162.4z"/>
			<path class="st1" d="M342.3,150.7c0-4.1-0.1-8.5-0.4-13.4h11.8c0.4,2.3,0.7,4.6,0.9,7c4.9-5.3,10.5-8,16.8-8
				c3.7,0,7.1,0.9,10.2,2.8c3.1,1.8,5.6,4.8,7.6,8.8c1.9,4,2.9,9.1,2.9,15.2c0,6.4-1.1,11.9-3.3,16.4c-2.2,4.5-5.2,8-9.2,10.3
				c-3.9,2.3-8.5,3.5-13.6,3.5c-3.7,0-7.4-0.6-11-1.9V214l-12.6,1.1V150.7z M375.3,178.8c2.6-3.4,3.8-8.5,3.8-15.1
				c0-6.1-1.1-10.6-3.2-13.4c-2.1-2.8-4.9-4.1-8.5-4.1c-2.4,0-4.7,0.6-6.8,1.7c-2.1,1.2-4,2.7-5.9,4.6v29.4c1.3,0.6,2.7,1.1,4.4,1.5
				c1.7,0.4,3.3,0.5,4.9,0.5C369,183.9,372.7,182.2,375.3,178.8z"/>
			<path class="st1" d="M400,150.7c0-4.1-0.1-8.5-0.4-13.4h11.8c0.4,2.3,0.7,4.6,0.9,7c4.9-5.3,10.5-8,16.8-8
				c3.7,0,7.1,0.9,10.2,2.8c3.1,1.8,5.6,4.8,7.6,8.8c1.9,4,2.9,9.1,2.9,15.2c0,6.4-1.1,11.9-3.3,16.4c-2.2,4.5-5.2,8-9.2,10.3
				c-3.9,2.3-8.5,3.5-13.6,3.5c-3.7,0-7.4-0.6-11-1.9V214l-12.6,1.1V150.7z M433.1,178.8c2.6-3.4,3.8-8.5,3.8-15.1
				c0-6.1-1.1-10.6-3.2-13.4c-2.1-2.8-4.9-4.1-8.5-4.1c-2.4,0-4.7,0.6-6.8,1.7c-2.1,1.2-4,2.7-5.9,4.6v29.4c1.3,0.6,2.7,1.1,4.4,1.5
				s3.3,0.5,4.9,0.5C426.8,183.9,430.5,182.2,433.1,178.8z"/>
			<path class="st1" d="M473.4,188.7c-5.4-3-9.6-7.3-12.5-12.9c-2.9-5.6-4.4-12.2-4.4-19.8c0-8.3,1.7-15.3,5-21.1
				c3.4-5.8,7.9-10.1,13.7-13c5.8-2.9,12.3-4.4,19.5-4.4c4.2,0,8.3,0.5,12.1,1.4c3.9,0.9,7.4,2.2,10.8,3.8l-3.2,9.7
				c-6.7-3.2-13.1-4.8-19.1-4.8c-5.1,0-9.6,1.1-13.5,3.3c-3.9,2.2-6.8,5.4-9,9.6c-2.1,4.2-3.2,9.4-3.2,15.4c0,5.3,0.8,9.9,2.5,14
				c1.6,4.1,4.2,7.3,7.8,9.7c3.5,2.4,8,3.6,13.4,3.6c2.4,0,4.9-0.2,7.3-0.6c2.4-0.4,4.7-1,6.9-1.8v-14.9h-17V156h29.3v31
				c-4.2,2-8.6,3.5-13.3,4.5c-4.6,1.1-9.2,1.6-13.8,1.6C485.3,193.2,478.9,191.7,473.4,188.7z"/>
			<path class="st1" d="M565,192.2c-0.4-2.1-0.7-4.6-0.9-7.3c-1.9,2.3-4.5,4.3-7.6,5.9c-3.1,1.6-6.6,2.4-10.5,2.4
				c-3.2,0-6-0.6-8.6-1.9c-2.6-1.2-4.7-3.1-6.2-5.6c-1.5-2.5-2.3-5.5-2.3-9.1c0-5.3,1.9-9.6,5.8-12.7c3.8-3.2,10.2-4.8,19.2-4.8
				c3.4,0,6.7,0.2,10,0.7v-1.1c0-4.9-1-8.3-3.1-10.3c-2.1-2-5-3-8.9-3c-2.7,0-5.5,0.4-8.6,1.2c-3.1,0.8-5.7,1.7-8,2.8l-2-9.2
				c2.2-1,5.2-2,8.9-2.8c3.7-0.8,7.5-1.3,11.6-1.3c4.7,0,8.8,0.7,12.1,2.2c3.3,1.4,5.9,3.9,7.8,7.4c1.9,3.5,2.8,8.2,2.8,14.2v21.8
				c0,2.3,0.1,5.7,0.4,10.3H565z M557.5,182c2.6-1.3,4.8-2.8,6.4-4.7v-10.2c-3.4-0.4-6.2-0.6-8.4-0.6c-5.2,0-8.8,0.8-10.8,2.5
				c-2,1.7-3,3.9-3,6.8c0,2.7,0.7,4.7,2.2,6c1.4,1.3,3.4,2,5.9,2C552.3,183.9,554.9,183.2,557.5,182z"/>
			<path class="st1" d="M587.4,179v-64.9l12.5-1v63.7c0,2.3,0.4,4,1.2,5c0.8,1,2.1,1.5,3.8,1.5c0.8,0,1.9-0.2,3.3-0.6l1.5,9
				c-1.2,0.5-2.6,0.9-4.4,1.1c-1.7,0.3-3.3,0.4-4.9,0.4C591.8,193.2,587.4,188.5,587.4,179z"/>
			<path class="st1" d="M618.7,179v-64.9l12.5-1v63.7c0,2.3,0.4,4,1.2,5c0.8,1,2.1,1.5,3.8,1.5c0.8,0,1.9-0.2,3.3-0.6l1.5,9
				c-1.2,0.5-2.6,0.9-4.4,1.1c-1.7,0.3-3.3,0.4-4.9,0.4C623.1,193.2,618.7,188.5,618.7,179z"/>
			<path class="st1" d="M693.1,166.3h-35.9c0.6,11.5,6.1,17.2,16.4,17.2c2.6,0,5.2-0.3,7.9-0.9c2.7-0.6,5.3-1.5,7.8-2.5l2.7,8.6
				c-6.1,3-13,4.5-20.7,4.5c-5.8,0-10.8-1.1-14.8-3.3c-4-2.2-7-5.4-9-9.5c-2-4.1-3-9.1-3-15c0-6.1,1.1-11.3,3.2-15.7
				c2.1-4.4,5.1-7.7,8.9-10c3.8-2.3,8.2-3.5,13.2-3.5c5.2,0,9.5,1.2,13,3.6c3.5,2.4,6.1,5.7,7.7,9.7c1.7,4,2.5,8.5,2.5,13.4V166.3z
				 M680.8,158.3c-0.2-4.4-1.3-7.7-3.3-9.8c-2-2.2-4.6-3.3-7.9-3.3c-3.2,0-5.8,1.1-8,3.3c-2.1,2.2-3.5,5.5-4.1,9.8H680.8z"/>
			<path class="st1" d="M703.2,151.1c0-3-0.1-7.6-0.4-13.8h11.8c0.2,1.5,0.4,3.4,0.6,5.5c0.2,2.1,0.3,3.8,0.4,5.2
				c1.5-2.4,2.9-4.4,4.3-6.1s3.1-3,4.9-4c1.9-1,4-1.6,6.4-1.6c1.9,0,3.6,0.2,5,0.6l-1.6,10.9c-1.2-0.4-2.6-0.6-4.1-0.6
				c-3,0-5.5,0.8-7.7,2.3c-2.2,1.5-4.6,4-7.1,7.5v35.3h-12.5V151.1z"/>
			<path class="st1" d="M743.7,214.6c-1.8-0.3-3.3-0.7-4.5-1.1l2.3-9.2c0.8,0.2,1.9,0.5,3.2,0.7c1.3,0.2,2.5,0.3,3.7,0.3
				c5.6,0,9.7-3.6,12.5-10.7l0.8-2l-20.2-55.4h13.5l10.2,30.9c1.7,5.3,2.7,9.3,3.2,12.2c1-4,2.1-7.9,3.4-11.9l10.3-31.2h12.7
				l-20.2,55.6c-1.9,5.3-4,9.5-6.2,12.7c-2.2,3.2-4.8,5.6-7.8,7.2c-3,1.6-6.6,2.3-10.9,2.3C747.5,215.1,745.6,215,743.7,214.6z"/>
		</g>
		<g>
			<path class="st1" d="M265.6,46.7h22.7l-0.6,5.5h-15.4v10.6h14.5v5.1h-14.5v11.7h16.2l-0.6,5.5h-22.3V46.7z"/>
			<path class="st1" d="M303.9,65.6l-12-18.8h7.5l8.1,13.8l8.5-13.8h7.3l-11.9,18.6l12.8,19.9h-7.7l-9.2-15.1l-9.3,15.1H291
				L303.9,65.6z"/>
			<path class="st1" d="M329.3,46.7h10.4c4.9,0,8.6,1,11.2,3c2.6,2,3.9,4.9,3.9,8.6c0,2.6-0.6,4.8-1.7,6.7c-1.2,1.9-2.8,3.4-4.9,4.4
				s-4.5,1.5-7.1,1.5c-1.5,0-3.2-0.2-5-0.5v14.8h-6.6V46.7z M346,63.9c1.4-1.3,2.1-3.1,2.1-5.4c0-2.4-0.7-4.1-2.2-5.1
				c-1.4-1-3.6-1.6-6.4-1.6H336v13.7c1.7,0.3,2.9,0.4,3.8,0.4C342.5,65.8,344.6,65.2,346,63.9z"/>
			<path class="st1" d="M361.3,46.7h6.6v32.8h15.9l-0.6,5.7h-22V46.7z"/>
			<path class="st1" d="M394,83.3c-2.8-1.6-5-3.9-6.5-6.8c-1.5-2.9-2.2-6.3-2.2-10.2c0-4.1,0.8-7.6,2.4-10.6c1.6-3,3.9-5.4,6.9-7
				c3-1.7,6.5-2.5,10.6-2.5c3.9,0,7.2,0.8,10,2.4c2.8,1.6,4.9,3.9,6.4,6.8c1.5,2.9,2.2,6.3,2.2,10.1c0,4.1-0.8,7.7-2.4,10.8
				c-1.6,3-3.9,5.4-6.9,7c-3,1.6-6.5,2.5-10.5,2.5C400.1,85.7,396.8,84.9,394,83.3z M411.2,78.6c1.9-1.2,3.3-3,4.2-5.2
				c0.9-2.2,1.4-4.7,1.4-7.5c0-2.8-0.4-5.2-1.2-7.4c-0.8-2.2-2.1-3.9-3.9-5.2c-1.8-1.3-4.1-1.9-6.9-1.9c-2.7,0-5,0.7-6.9,2
				c-1.9,1.3-3.3,3-4.2,5.2c-0.9,2.2-1.4,4.6-1.4,7.2c0,2.8,0.4,5.3,1.3,7.5c0.9,2.2,2.2,3.9,4.1,5.2c1.8,1.3,4.1,1.9,6.8,1.9
				C407.1,80.5,409.3,79.8,411.2,78.6z"/>
			<path class="st1" d="M431.1,46.7h12c4.4,0,7.7,0.9,10,2.6c2.3,1.8,3.4,4.3,3.4,7.5c0,2-0.4,3.8-1.2,5.4c-0.8,1.6-1.8,2.8-3,3.8
				c-1.2,1-2.4,1.7-3.7,2.2l11.8,17h-7.7l-10-15.3h-4.9v15.3h-6.6V46.7z M441.5,64.9c1.6,0,3-0.3,4.3-0.9c1.2-0.6,2.2-1.5,2.9-2.7
				c0.7-1.1,1-2.5,1-4c0-1.9-0.6-3.3-1.8-4.2c-1.2-0.9-3-1.3-5.3-1.3h-4.8v13.2H441.5z"/>
			<path class="st1" d="M465.6,46.7h22.7l-0.6,5.5h-15.4v10.6h14.5v5.1h-14.5v11.7h16.2l-0.6,5.5h-22.3V46.7z"/>
			<path class="st1" d="M513,46.7h6.6v38.5H513V46.7z"/>
			<path class="st1" d="M537.2,52.3h-11.9l0.6-5.6h29.9l-0.6,5.6h-11.3v32.9h-6.6V52.3z"/>
			<path class="st1" d="M584.6,83.3c-2.8-1.6-5-3.9-6.5-6.8c-1.5-2.9-2.2-6.3-2.2-10.2c0-4.1,0.8-7.6,2.4-10.6c1.6-3,3.9-5.4,6.9-7
				c3-1.7,6.5-2.5,10.6-2.5c3.9,0,7.2,0.8,10,2.4c2.8,1.6,4.9,3.9,6.4,6.8c1.5,2.9,2.2,6.3,2.2,10.1c0,4.1-0.8,7.7-2.4,10.8
				c-1.6,3-3.9,5.4-6.9,7c-3,1.6-6.5,2.5-10.5,2.5C590.8,85.7,587.4,84.9,584.6,83.3z M601.8,78.6c1.9-1.2,3.3-3,4.2-5.2
				c0.9-2.2,1.4-4.7,1.4-7.5c0-2.8-0.4-5.2-1.2-7.4c-0.8-2.2-2.1-3.9-3.9-5.2c-1.8-1.3-4.1-1.9-6.9-1.9c-2.7,0-5,0.7-6.9,2
				c-1.9,1.3-3.3,3-4.2,5.2c-0.9,2.2-1.4,4.6-1.4,7.2c0,2.8,0.4,5.3,1.3,7.5c0.9,2.2,2.2,3.9,4.1,5.2c1.8,1.3,4.1,1.9,6.8,1.9
				C597.7,80.5,600,79.8,601.8,78.6z"/>
			<path class="st1" d="M621.7,46.7h7.6l19,29.8c-0.2-2.8-0.2-5.4-0.2-7.8v-22h6.2v38.5h-7.4l-19.3-30.3c0.2,3.4,0.3,6.5,0.3,9.1
				v21.2h-6.2V46.7z"/>
		</g>
		<g>
			<g id="形状_1_拷贝_25_32_">
				<g>
					<path class="st2" d="M172.3,46.4h-71c-33.4,0-45.7,12.2-45.7,45.7v71c0,33.4,12.2,45.7,45.7,45.7h71
						c33.4,0,45.7-12.2,45.7-45.7l0-71C218,58.6,205.8,46.4,172.3,46.4z"/>
				</g>
			</g>
			<path class="st1" d="M87.9,127.6h4.3v21.2h-4.3v-8.6h-9.7v8.6h-4.3v-21.2h4.3v8.6h9.7V127.6z M112.1,139.7c0,3.4-1.7,5.3-4.8,5.3
				c-3.1,0-4.9-1.9-4.9-5.4v-12h-4.3v12.1c0,6,3.3,9.4,9.1,9.4c5.8,0,9.2-3.5,9.2-9.6v-12h-4.3V139.7z M161.9,142.2l-4.8-14.6h-3.5
				l-4.8,14.6l-4.7-14.6h-4.6l7.4,21.2h3.6l4.8-13.9l4.8,13.9h3.6l7.4-21.2h-4.5L161.9,142.2z M178.7,139.7h7.8v-3.9h-7.8v-4.3h11.4
				v-3.9h-15.6v21.2h16v-3.9h-11.8V139.7z M195.7,148.8h4.2v-21.2h-4.2V148.8z M124.9,144.4l-1.9,4.4h-4.4l9.3-21.2h3.8l9.3,21.2
				h-4.5l-1.9-4.4H124.9z M126.5,140.5h6.5l-3.3-7.6L126.5,140.5z"/>
			<path class="st1" d="M136.9,100.6c-14.9,0-27-12.1-27-27h3.8c0,12.8,10.4,23.2,23.2,23.2c12.8,0,23.2-10.4,23.2-23.2h3.8
				C163.9,88.4,151.8,100.6,136.9,100.6z"/>
		</g>
	</g>
</g>
</svg>
