<?xml version="1.0" encoding="UTF-8"?>
<svg width="226px" height="41px" viewBox="0 0 226 41" version="1.1" xmlns="http://www.w3.org/2000/svg" xmlns:xlink="http://www.w3.org/1999/xlink">
    <!-- Generator: Sketch 62 (91390) - https://sketch.com -->
    <title>OBSERVATOR_Logo__Observator_Black_RedBrackets</title>
    <desc>Created with Sketch.</desc>
    <g id="Page-1" stroke="none" stroke-width="1" fill="none" fill-rule="evenodd">
        <g id="Observator-–-Home-–-Mobile-Copy-3" transform="translate(-13.000000, -13.000000)">
            <g id="OBSERVATOR_Logo__Observator_Black_RedBrackets" transform="translate(13.000000, 13.000000)">
                <polyline id="Fill-1" fill="#DC0510" points="0.0238026345 40.9357324 0.0238026345 0.143007764 10.2861933 0.143007764 10.2861933 4.45493178 4.80429303 4.45493178 4.80429303 36.6232325 10.2861933 36.6232325 10.2861933 40.9357324 0.0238026345 40.9357324"></polyline>
                <polyline id="Fill-2" fill="#DC0510" points="215.198664 36.6232325 220.680565 36.6232325 220.680565 4.45493178 215.198664 4.45493178 215.198664 0.143007764 225.494263 0.143007764 225.494263 40.9357324 215.198664 40.9357324 215.198664 36.6232325"></polyline>
                <path d="M12.2771714,20.6631822 C12.2554802,17.7329627 13.4379337,14.8977618 15.543699,12.8597572 C17.7216401,10.7520723 20.366036,9.69822986 23.4776546,9.69822986 C26.5886973,9.69822986 29.2330932,10.7520723 31.4110343,12.8597572 C33.5196789,14.9004492 34.7023243,17.7412168 34.6777539,20.6754674 C34.6526076,23.6795902 33.5688199,26.218026 31.4265828,28.2909667 C29.2584315,30.3886699 26.6090447,31.4371375 23.4776546,31.4371375 C20.366036,31.4371375 17.7216401,30.3886699 15.543699,28.2909667 C13.3884089,26.2151467 12.2996303,23.6726798 12.2771714,20.6631822 Z M16.9136942,20.5679716 C16.9136942,22.4545224 17.5461916,24.03567 18.8104186,25.3100707 C20.0754135,26.5850473 21.6306469,27.2217678 23.4776546,27.2217678 C25.3037389,27.2217678 26.8543654,26.5742977 28.129342,25.2797415 C29.4037427,23.9851853 30.041231,22.4147873 30.041231,20.5679716 C30.041231,18.7415033 29.4091175,17.1757123 28.1443146,15.8711744 C26.8798957,14.5664445 25.3238944,13.9137916 23.4776546,13.9137916 C21.6306469,13.9137916 20.0754135,14.5610697 18.8104186,15.8556259 C17.5461916,17.1501821 16.9136942,18.7211559 16.9136942,20.5679716 L16.9136942,20.5679716 Z" id="Fill-3" fill="#000105"></path>
                <path d="M38.6758286,31.0156006 L38.6758286,10.0299311 L47.0163486,10.0299311 C48.7021126,10.0299311 50.1220165,10.5368888 51.2764443,11.5504203 C52.4306801,12.5639519 53.007894,13.8435354 53.007894,15.3889791 C53.007894,16.3929128 52.7719791,17.2709228 52.3001495,18.0233932 C51.8285118,18.7764395 51.171252,19.3031687 50.32837,19.6045408 C51.6728349,19.8452545 52.7113208,20.437825 53.4444036,21.3805245 C54.1771024,22.3243757 54.5435478,23.4686298 54.5435478,24.8132867 C54.5435478,26.6000199 53.9360047,28.0800063 52.7218784,29.2545895 C51.5069843,30.4284049 49.986495,31.0156006 48.1602187,31.0156006 L38.6758286,31.0156006 Z M43.2223238,18.4002043 L46.2633023,18.4002043 C46.9259369,18.4002043 47.4678308,18.1892438 47.8895597,17.7678988 C48.3109047,17.3463618 48.5216732,16.8144497 48.5216732,16.1717786 C48.5216732,15.5500308 48.3109047,15.0330913 47.8895597,14.6211521 C47.4678308,14.2103647 46.9355348,14.0040113 46.2936315,14.0040113 L43.2223238,14.0040113 L43.2223238,18.4002043 Z M43.2223238,27.0111912 L47.2267331,27.0111912 C48.0095327,27.0111912 48.6568108,26.7658705 49.1689513,26.2736935 C49.6810919,25.7820923 49.9365863,25.1745492 49.9365863,24.4518321 C49.9365863,23.729499 49.6810919,23.1375044 49.1689513,22.6756565 C48.6568108,22.2138086 47.9995509,21.9832686 47.1967879,21.9832686 L43.2223238,21.9832686 L43.2223238,27.0111912 L43.2223238,27.0111912 Z" id="Fill-4" fill="#000105"></path>
                <path d="M57.5540052,28.0051432 L59.9025958,24.1510359 C61.6889451,26.1583275 63.7866482,27.1616853 66.1951293,27.1616853 C67.3996578,27.1616853 68.2427318,26.9714562 68.7243512,26.5898462 C69.2063546,26.2088121 69.4470683,25.7066533 69.4470683,25.0843296 C69.4470683,24.4220789 69.0405039,23.9251029 68.2275672,23.5939775 C67.4148224,23.2624682 66.1296721,22.8409313 64.3738439,22.3291746 C62.6168639,21.817418 61.1522341,21.0947009 59.9776509,20.1614073 C58.8034515,19.2283056 58.2164479,17.8183834 58.2164479,15.9310649 C58.2164479,14.124752 58.8938632,12.6340161 60.2486938,11.4600087 C61.6037163,10.2856174 63.5856695,9.69822986 66.1951293,9.69822986 C69.0053759,9.69822986 71.3537745,10.7021636 73.2407091,12.7094551 L71.0126674,16.2021078 C69.5474617,14.6365087 67.9515334,13.8537091 66.2254585,13.8537091 C64.9406921,13.8537091 64.0473255,14.049313 63.5459345,14.4409048 C63.0435837,14.8321126 62.7928883,15.309317 62.7928883,15.8711744 C62.7928883,16.4731507 63.1339954,16.9749256 63.8165935,17.3761151 C64.4988077,17.7778806 65.9192875,18.2748565 68.0770731,18.8668511 C70.2346668,19.4588456 71.755156,20.2619926 72.6387328,21.2753322 C73.5217338,22.2894396 73.9632343,23.5085568 73.9632343,24.9338355 C73.9632343,26.8810446 73.3059744,28.4366619 71.9914547,29.6004955 C70.6761672,30.7649051 68.734333,31.3467259 66.165376,31.3467259 C62.9533641,31.3467259 60.0832271,30.232801 57.5540052,28.0051432" id="Fill-5" fill="#000105"></path>
                <polyline id="Fill-6" fill="#000105" points="78.0580552 31.0156006 78.0580552 10.0299311 92.3899286 10.0299311 92.3899286 14.244725 82.694962 14.244725 82.694962 18.1892438 91.7576231 18.1892438 91.7576231 22.314394 82.694962 22.314394 82.694962 26.8002308 92.6005051 26.8002308 92.6005051 31.0156006 78.0580552 31.0156006"></polyline>
                <path d="M97.5378242,31.0156006 L97.5378242,10.0299311 L106.329826,10.0299311 C108.296807,10.0299311 109.977772,10.6975566 111.373105,12.0318478 C112.767863,13.3669069 113.465626,15.007945 113.465626,16.9545782 C113.465626,19.4237176 112.261289,21.320442 109.852232,22.6455193 L114.850594,31.0156006 L109.611519,31.0156006 L105.245655,23.4584561 L102.144786,23.4584561 L102.144786,31.0156006 L97.5378242,31.0156006 Z M102.144786,19.2430863 L106.028454,19.2430863 C106.931995,19.2430863 107.624574,19.022528 108.106194,18.5810275 C108.588005,18.1393351 108.828719,17.5170114 108.828719,16.7138644 C108.828719,15.9310649 108.57764,15.3242896 108.076249,14.892195 C107.573898,14.4612522 106.951574,14.244725 106.209277,14.244725 L102.144786,14.244725 L102.144786,19.2430863 L102.144786,19.2430863 Z" id="Fill-7" fill="#000105"></path>
                <polyline id="Fill-8" fill="#000105" points="125.480197 32.0398817 114.700867 10.0299311 119.638762 10.0299311 125.470216 22.3470266 131.351002 10.0299311 136.289281 10.0299311 125.480197 32.0398817"></polyline>
                <path d="M139.13312,27.6734419 L137.44678,31.0156006 L132.539214,31.0156006 L143.468655,9.72855902 L154.398479,31.0156006 L149.460392,31.0156006 L147.774436,27.6734419 L139.13312,27.6734419 Z M145.756971,23.729499 L143.438517,19.1225375 L141.120256,23.729499 L145.756971,23.729499 L145.756971,23.729499 Z" id="Fill-9" fill="#000105"></path>
                <polyline id="Fill-10" fill="#000105" points="158.219378 31.0156006 158.219378 14.244725 152.528628 14.244725 152.528628 10.0299311 168.456622 10.0299311 168.456622 14.244725 162.856284 14.244725 162.856284 31.0156006 158.219378 31.0156006"></polyline>
                <path d="M169.705492,20.5679716 C169.705492,17.5371668 170.794079,14.967634 172.972212,12.8599492 C175.150153,10.7520723 177.794549,9.69822986 180.905976,9.69822986 C184.017018,9.69822986 186.661606,10.7520723 188.839739,12.8599492 C191.017488,14.967634 192.106459,17.5371668 192.106459,20.5679716 C192.106459,23.6191239 191.022671,26.1934556 188.854904,28.2909667 C186.686752,30.3886699 184.037558,31.4371375 180.905976,31.4371375 C177.794549,31.4371375 175.150153,30.3886699 172.972212,28.2909667 C170.794079,26.1934556 169.705492,23.6191239 169.705492,20.5679716 Z M174.342399,20.5679716 C174.342399,22.4545224 174.974513,24.03567 176.239124,25.3100707 C177.503734,26.5850473 179.058968,27.2217678 180.905976,27.2217678 C182.732252,27.2217678 184.28307,26.5742977 185.558047,25.2797415 C186.832448,23.9851853 187.469552,22.4147873 187.469552,20.5679716 C187.469552,18.7415033 186.837439,17.1757123 185.572828,15.8711744 C184.308217,14.5664445 182.752407,13.9137916 180.905976,13.9137916 C179.058968,13.9137916 177.503734,14.5610697 176.239124,15.8556259 C174.974513,17.1501821 174.342399,18.7211559 174.342399,20.5679716 L174.342399,20.5679716 Z" id="Fill-11" fill="#000105"></path>
                <path d="M195.956343,31.0156006 L195.956343,10.0299311 L204.748153,10.0299311 C206.715326,10.0299311 208.396291,10.6975566 209.791624,12.0318478 C211.186574,13.3669069 211.884145,15.007945 211.884145,16.9545782 C211.884145,19.4237176 210.679616,21.320442 208.271135,22.6455193 L213.269112,31.0156006 L208.030037,31.0156006 L203.664557,23.4584561 L200.562921,23.4584561 L200.562921,31.0156006 L195.956343,31.0156006 Z M200.562921,19.2430863 L204.447357,19.2430863 C205.350321,19.2430863 206.043093,19.022528 206.524713,18.5810275 C207.00614,18.1393351 207.247238,17.5170114 207.247238,16.7138644 C207.247238,15.9310649 206.996158,15.3242896 206.494575,14.892195 C205.992801,14.4612522 205.370093,14.244725 204.627988,14.244725 L200.562921,14.244725 L200.562921,19.2430863 L200.562921,19.2430863 Z" id="Fill-12" fill="#000105"></path>
            </g>
        </g>
    </g>
</svg>